<svg xmlns="http://www.w3.org/2000/svg" viewBox="0 0 16 16">
  <path
    d="M 14 4.5 L 14 14 C 14 15.104569435119629 13.104569435119629 16 12 16 L 8 16 L 8 15 L 12 15 C 12.552285194396973 15 13 14.552285194396973 13 14 L 13 4.5 L 11 4.5 C 10.1715726852417 4.5 9.5 3.8284270763397217 9.5 3 L 9.5 1 L 4 1 C 3.4477152824401855 1 3 1.4477152824401855 3 2 L 3 11 L 2 11 L 2 2 C 2 0.8954305052757263 2.895430564880371 2.02906120474947e-16 4 0 L 9.5 0 L 14 4.5 Z "
    fill-rule="evenodd" fill="#97a1b5"/>
  <path
    d="M 5.425000190734863 15.925000190734863 L 5.425000190734863 12.588000297546387 L 6.559999942779541 12.588000297546387 L 6.559999942779541 11.925999641418457 L 3.496999979019165 11.925999641418457 L 3.496999979019165 12.588000297546387 L 4.630000114440918 12.588000297546387 L 4.630000114440918 15.925000190734863 L 5.423999786376953 15.925000190734863 L 5.425000190734863 15.925000190734863 Z "
    fill-rule="evenodd" fill="#97a1b5"/>
  <path
    d="M 3.2100000381469727 11.850000381469727 L 2.3399999141693115 11.850000381469727 L 0.8299999833106995 13.640000343322754 L 0.7900000214576721 13.640000343322754 L 0.7900000214576721 11.850000381469727 L 0 11.850000381469727 L 0 15.848999977111816 L 0.7910000085830688 15.848999977111816 L 0.7910000085830688 14.565999984741211 L 1.2009999752044678 14.100000381469727 L 2.321000099182129 15.848999977111816 L 3.2720000743865967 15.848999977111816 L 1.784000039100647 13.572999954223633 L 3.2109999656677246 11.850000381469727 L 3.2100000381469727 11.850000381469727 Z "
    fill-rule="evenodd" fill="#97a1b5"/>
</svg>
