<svg xmlns="http://www.w3.org/2000/svg" width="900" height="300" version="1.0"><path style="fill:#fff;fill-opacity:1;fill-rule:evenodd;stroke:#000;stroke-width:1;stroke-linecap:butt;stroke-linejoin:miter;stroke-miterlimit:4;stroke-dashoffset:0;stroke-opacity:1" d="M0 0h60v60H0zm60 0h60v60H60zm60 0h60v60h-60zm60 0h60v60h-60zm60 0h60v60h-60zm60 0h60v60h-60zm60 0h60v60h-60zm60 0h60v60h-60zm60 0h60v60h-60zm60 0h60v60h-60zm60 0h60v60h-60zm60 0h60v60h-60zm60 0h60v60h-60z"/><path style="fill:#dfdfdf;fill-opacity:1;fill-rule:evenodd;stroke:#000;stroke-width:1;stroke-linecap:butt;stroke-linejoin:miter;stroke-miterlimit:4;stroke-dashoffset:0;stroke-opacity:1" d="M780 0h120v60H780zM0 60h90v60H0z"/><path style="fill:#fff;fill-opacity:1;fill-rule:evenodd;stroke:#000;stroke-width:1;stroke-linecap:butt;stroke-linejoin:miter;stroke-miterlimit:4;stroke-dashoffset:0;stroke-opacity:1" d="M90 60h60v60H90zm60 0h60v60h-60zm60 0h60v60h-60zm60 0h60v60h-60zm60 0h60v60h-60zm60 0h60v60h-60zm60 0h60v60h-60zm60 0h60v60h-60zm60 0h60v60h-60zm60 0h60v60h-60zm60 0h60v60h-60zm60 0h60v60h-60zm60 0h90v60h-90z"/><path style="fill:#dfdfdf;fill-opacity:1;fill-rule:evenodd;stroke:#000;stroke-width:1;stroke-linecap:butt;stroke-linejoin:miter;stroke-miterlimit:4;stroke-dashoffset:0;stroke-opacity:1" d="M0 120h105v60H0z"/><path style="fill:#fff;fill-opacity:1;fill-rule:evenodd;stroke:#000;stroke-width:1;stroke-linecap:butt;stroke-linejoin:miter;stroke-miterlimit:4;stroke-dashoffset:0;stroke-opacity:1" d="M105 120h60v60h-60zm60 0h60v60h-60zm60 0h60v60h-60zm60 0h60v60h-60zm60 0h60v60h-60zm60 0h60v60h-60zm60 0h60v60h-60zm60 0h60v60h-60zm60 0h60v60h-60zm60 0h60v60h-60zm60 0h60v60h-60z"/><path style="fill:#dfdfdf;fill-opacity:1;fill-rule:evenodd;stroke:#000;stroke-width:1;stroke-linecap:butt;stroke-linejoin:miter;stroke-miterlimit:4;stroke-dashoffset:0;stroke-opacity:1" d="M765 120h135v60H765zM0 180h135v60H0z"/><path style="fill:#fff;fill-opacity:1;fill-rule:evenodd;stroke:#000;stroke-width:1;stroke-linecap:butt;stroke-linejoin:miter;stroke-miterlimit:4;stroke-dashoffset:0;stroke-opacity:1" d="M135 180h60v60h-60zm60 0h60v60h-60zm60 0h60v60h-60zm60 0h60v60h-60zm60 0h60v60h-60zm60 0h60v60h-60zm60 0h60v60h-60zm60 0h60v60h-60zm60 0h60v60h-60zm60 0h60v60h-60z"/><path style="fill:#dfdfdf;fill-opacity:1;fill-rule:evenodd;stroke:#000;stroke-width:1;stroke-linecap:butt;stroke-linejoin:miter;stroke-miterlimit:4;stroke-dashoffset:0;stroke-opacity:1" d="M735 180h165v60H735zM0 240h90v60H0zm810 0h90v60h-90zm-660 0h90v60h-90zm450 0h90v60h-90z"/><path style="fill:#fff;fill-opacity:1;fill-rule:evenodd;stroke:#000;stroke-width:1;stroke-linecap:butt;stroke-linejoin:miter;stroke-miterlimit:4;stroke-dashoffset:0;stroke-opacity:1" d="M240 240h360v60H240z"/><path style="fill:#efefef;fill-opacity:1;fill-rule:evenodd;stroke:#000;stroke-width:1;stroke-linecap:butt;stroke-linejoin:miter;stroke-miterlimit:4;stroke-dashoffset:0;stroke-opacity:1" d="M90 240h60v60H90zm600 0h60v60h-60zm60 0h60v60h-60z"/><path style="font-size:24px;font-style:normal;font-variant:normal;font-weight:700;font-stretch:normal;text-align:center;line-height:125%;writing-mode:lr-tb;text-anchor:middle;fill:#000;fill-opacity:1;stroke:none;stroke-width:1px;stroke-linecap:butt;stroke-linejoin:miter;stroke-opacity:1;font-family:Swis721 BT" d="m75.352 18.826-.915-7.77V6.37h3.61v4.688l-.914 7.77zm-.868 4.804v-3.457h3.48v3.457zm.868 30V42.158h-4.008v-2.355h.258q2.19 0 3.187-.68 1.007-.679 1.184-2.273h2.683v16.78zM23.344 14.22v2.59q-1.219.832-2.309 1.231a6.3 6.3 0 0 1-2.133.387 6.3 6.3 0 0 1-1.078-.094 8 8 0 0 1-1.078-.27 38 38 0 0 1-.832-.293q-2.566-.878-3.902-.878-.996 0-2.086.445-1.079.434-2.426 1.394v-2.59q1.254-.843 2.39-1.253 1.137-.423 2.145-.422 1.37 0 3.41.68a.2.2 0 0 0 .047.011q.21.07.645.223 1.816.644 2.812.644T21 15.592t2.344-1.371M11.988 35.033h3.024l2.308 4.336h-1.664zm124.488-14.59q-.645.985-1.488 1.453-.844.458-1.993.458-1.85 0-2.824-1.008-.96-1.008-.96-2.977 0-2.8 1.628-4.7 1.641-1.898 4.031-1.898.937 0 1.63.387.69.386 1.136 1.149l.621-1.149h2.086l-1.723 7.008a3 3 0 0 0-.058.27 1 1 0 0 0-.024.21q0 .41.282.622.28.199.832.199.456 0 .949-.235a3.4 3.4 0 0 0 .937-.656 6.2 6.2 0 0 0 1.524-2.191q.527-1.254.527-2.754 0-2.813-2.18-4.617-2.168-1.817-5.601-1.817-1.654 0-3.082.399a8.8 8.8 0 0 0-2.578 1.183q-1.993 1.336-3.07 3.34-1.067 2.003-1.067 4.395 0 3.597 2.426 5.754 2.425 2.145 6.48 2.144 1.899 0 3.703-.574a12.4 12.4 0 0 0 3.375-1.664l.961 1.37a13.5 13.5 0 0 1-3.808 2.028q-2.004.68-4.184.68-2.25 0-4.137-.574a10.4 10.4 0 0 1-3.351-1.676q-1.816-1.418-2.719-3.27-.903-1.85-.902-4.195 0-1.958.61-3.726a10.5 10.5 0 0 1 1.815-3.235 11.3 11.3 0 0 1 4.172-3.21q2.438-1.09 5.426-1.09 1.98 0 3.715.538 1.746.528 3.035 1.5 1.582 1.23 2.356 2.813.785 1.57.785 3.55 0 1.935-.774 3.575a7.8 7.8 0 0 1-2.203 2.789A6.3 6.3 0 0 1 141 22.049q-.96.34-2.004.34-1.242 0-1.875-.493-.621-.492-.644-1.453m.586-5.015q-.153-.95-.68-1.442-.515-.504-1.371-.504-1.335 0-2.32 1.454-.985 1.452-.985 3.492 0 1.077.469 1.64.48.563 1.383.563.972 0 1.77-.738.808-.739 1.1-1.922zm-8.496 38.203q.023-2.25.96-3.809.939-1.57 3.329-3.176.363-.246 1.054-.68 3.165-2.026 3.164-3.902 0-1.113-.668-1.757-.667-.645-1.828-.645-1.265 0-1.957.797-.68.785-.68 2.25v.14h-3.093q0-2.882 1.547-4.44 1.547-1.56 4.406-1.56 2.59 0 4.137 1.419 1.547 1.405 1.547 3.75 0 1.676-.809 2.906-.81 1.23-3.129 2.8-.492.34-1.36.891-2.202 1.418-2.484 2.156h7.618v2.86zm66.714-39.938-1.031 2.86h2.941l1.008-2.86zm0-7.218h2.59l-1.71 4.863h2.835l1.734-4.863h2.59l-1.734 4.863h3.316l-.867 2.355h-3.281l-.984 2.836h3.398l-.832 2.344h-3.41l-1.735 4.875h-2.59l1.735-4.875h-2.86l-1.746 4.875h-2.578l1.711-4.875H187.5l.89-2.344h3.305l1.008-2.836H189.2l.867-2.355h3.48zm-5.203 42.046h3.223q.012 1.407.68 2.122.667.703 1.98.703 1.266 0 1.945-.657.692-.668.692-1.91t-.809-1.875q-.797-.645-2.379-.644-.082 0-.258.011-.163.012-.246.012v-2.32h.364q1.452 0 2.144-.563.703-.573.703-1.746 0-.972-.597-1.535-.586-.574-1.606-.574-1.113 0-1.723.656-.609.657-.609 1.863v.141h-3.164q.059-2.578 1.512-3.95 1.464-1.382 4.125-1.382 2.52 0 3.996 1.23t1.476 3.317q0 1.101-.504 1.934-.504.831-1.511 1.37 1.29.563 1.945 1.56.668.983.668 2.355 0 2.52-1.652 3.996-1.653 1.476-4.512 1.476-2.824 0-4.36-1.43-1.523-1.44-1.523-4.09zm64.382-27.07q.962-.129 1.466-.691t.504-1.5q0-.833-.48-1.371-.47-.552-1.49-.856zm-1.394-8.015V9.45q-.914.118-1.394.633-.48.505-.48 1.36 0 .714.445 1.195.456.48 1.43.797m0 12.832v-2.25q-2.65-.165-3.962-1.536t-1.312-3.96h3.14q.06 1.265.587 2.003.539.727 1.546.926V16.6q-2.718-.692-3.867-1.805-1.148-1.113-1.148-3.047 0-2.145 1.36-3.457 1.37-1.312 3.655-1.371v-1.5h1.395v1.5q2.284.117 3.562 1.383 1.277 1.254 1.407 3.539h-3.188q-.082-1.09-.527-1.664-.434-.586-1.254-.657v4.266q2.895.903 4.078 2.063 1.185 1.16 1.184 3.058 0 2.239-1.383 3.574-1.37 1.336-3.88 1.559v2.227zm1.582 21.152v-7.184l-4.558 7.184zm-.07 6.21v-3.62H247.5v-2.953l6.188-9.727h4.16v10.008h1.945v2.672h-1.945v3.62zm65.847-33.889q0 .786.527 1.324.528.528 1.3.528.75 0 1.29-.54.54-.55.539-1.312 0-.75-.539-1.277a1.73 1.73 0 0 0-1.29-.54q-.772 0-1.3.528-.527.516-.527 1.29m-2.543 0q0-1.83 1.265-3.083 1.267-1.254 3.106-1.254 1.804 0 3.07 1.278 1.278 1.265 1.278 3.058 0 1.805-1.278 3.094-1.277 1.277-3.07 1.277-1.84 0-3.106-1.265-1.265-1.267-1.265-3.106m-6.809 4.371L321.082 6.85h1.887L312.96 24.11zm-1.031-12.89q0 .773.516 1.3.527.528 1.3.528.762 0 1.29-.528.538-.538.538-1.3 0-.75-.539-1.278a1.73 1.73 0 0 0-1.289-.539q-.773 0-1.3.528-.516.515-.516 1.289m-2.543 0q0-1.828 1.266-3.094 1.265-1.277 3.093-1.277 1.805 0 3.07 1.289 1.278 1.277 1.278 3.082t-1.277 3.082q-1.267 1.265-3.07 1.265-1.84 0-3.106-1.254-1.254-1.253-1.254-3.093m3.352 37.898h3.28q.083 1.102.74 1.711.656.598 1.757.598 1.36 0 2.074-.797.726-.797.727-2.285 0-1.394-.739-2.192-.738-.808-2.039-.808-.726 0-1.277.293t-.937.867l-3.024-.176 1.09-9h9.644v2.836h-7.277l-.433 3.363a3.7 3.7 0 0 1 1.265-.644 5.4 5.4 0 0 1 1.594-.223q2.508 0 4.043 1.524 1.547 1.523 1.547 3.996 0 2.707-1.7 4.324-1.698 1.605-4.558 1.605-2.601 0-4.149-1.324-1.535-1.335-1.628-3.668m62.285-42.598h2.953l5.637 6.575h-2.754l-4.348-4.348-4.371 4.348H367.5zm-.985 41.778q0 1.44.715 2.285.726.843 1.969.844 1.16 0 1.816-.82.657-.821.657-2.286 0-1.347-.68-2.097t-1.91-.75q-1.208 0-1.887.75-.68.75-.68 2.074m-.047-4.383q.575-.586 1.383-.879a5.1 5.1 0 0 1 1.805-.305q2.46 0 3.937 1.5 1.49 1.5 1.489 3.997 0 2.647-1.617 4.277-1.618 1.629-4.266 1.629-3.06 0-4.652-2.11-1.582-2.109-1.582-6.175 0-4.371 1.699-6.68 1.699-2.32 4.898-2.32 2.227 0 3.586 1.16 1.371 1.16 1.5 3.14h-3.398q-.118-.808-.633-1.218-.516-.41-1.442-.41-1.265 0-1.945 1.101-.68 1.09-.762 3.293m60.75-27.82-.89.644q-.54.375-.809.903-.27.527-.27 1.183 0 .996.68 1.676t1.7.68q.75 0 1.43-.305.69-.317 1.277-.914zm.938-3.692.41-.293q.562-.386.832-.867.27-.48.27-1.101 0-.598-.375-.95-.365-.351-.996-.351-.645 0-1.02.363-.375.351-.375.961 0 .328.176.715.187.387.527.82zm-2.637 1.559-.68-.89q-.527-.705-.761-1.313a3.8 3.8 0 0 1-.223-1.301q0-1.875 1.195-2.977 1.207-1.113 3.27-1.113 1.98 0 3.129 1.02t1.148 2.754q0 1.313-.68 2.355-.668 1.032-2.109 1.945l2.473 3.047q.352-.574.55-1.289.212-.714.294-1.594h3.047a10.2 10.2 0 0 1-.633 2.825 8.7 8.7 0 0 1-1.383 2.379l3.14 3.82h-3.984l-1.172-1.442a7.3 7.3 0 0 1-2.273 1.442q-1.23.48-2.578.48-2.391 0-3.914-1.418-1.512-1.418-1.512-3.62 0-1.641.844-2.825.844-1.183 2.812-2.285m3.504 39.668h-3.504q.188-3.434 1.653-6.809 1.476-3.374 4.207-6.633h-8.25V37.33h11.894v2.52q-2.766 3.046-4.254 6.445-1.476 3.398-1.746 7.336m58.84-40.418-2.062 2.906-1.993-1.394 2.25-2.825-3.28-.914.76-2.379 3.153 1.125V6.37h2.32v3.363l3.153-1.101.785 2.379-3.281.89 2.226 2.801-2.039 1.465zm-2.625 35.543q0 1.23.68 1.898.69.668 1.968.668 1.22 0 1.91-.68.705-.679.704-1.886 0-1.161-.715-1.863-.716-.704-1.899-.704t-1.921.715q-.727.715-.727 1.852m.27-7.195q0 .972.609 1.5.609.515 1.746.515t1.746-.527q.621-.528.621-1.488 0-.938-.633-1.477t-1.734-.54q-1.078 0-1.723.552-.633.55-.632 1.465m-1.207 3.257q-1.055-.585-1.524-1.37t-.469-2.005q0-2.156 1.477-3.386 1.476-1.23 4.078-1.23 2.625 0 4.102 1.23 1.488 1.218 1.488 3.386 0 1.161-.504 2.016-.504.843-1.512 1.36 1.23.573 1.852 1.593.62 1.008.62 2.461 0 2.45-1.616 3.844-1.605 1.395-4.43 1.394-2.86 0-4.441-1.382-1.582-1.383-1.582-3.856 0-1.441.586-2.414.597-.984 1.875-1.64M557.86 6.37q-1.618 2.648-2.403 5.39a20.8 20.8 0 0 0-.785 5.754q0 3 .785 5.742t2.402 5.39h-2.472q-2.051-2.8-3.117-5.625-1.055-2.835-1.055-5.507 0-2.673 1.055-5.508 1.066-2.836 3.117-5.637zm-1.793 36.317q0-1.442-.726-2.274-.716-.843-1.957-.844-1.171 0-1.828.809-.645.809-.645 2.262 0 1.36.68 2.12.68.763 1.91.762 1.207 0 1.887-.75t.68-2.085m.058 4.37a3.8 3.8 0 0 1-1.383.88q-.797.293-1.793.293-2.473 0-3.96-1.489-1.49-1.488-1.489-3.984 0-2.65 1.617-4.277 1.617-1.63 4.266-1.63 3.07 0 4.664 2.122 1.605 2.109 1.605 6.164 0 4.36-1.71 6.68-1.712 2.32-4.922 2.32-2.215 0-3.575-1.149-1.359-1.16-1.488-3.152l3.387.012q.117.808.633 1.207.515.398 1.453.398 1.265 0 1.933-1.101.669-1.102.762-3.293M609.375 6.37h2.496q2.039 2.789 3.094 5.624 1.055 2.825 1.055 5.52 0 2.684-1.055 5.52-1.055 2.834-3.094 5.612h-2.496q1.629-2.66 2.414-5.402.797-2.754.797-5.73 0-2.99-.797-5.73-.785-2.744-2.414-5.415m1.605 39.106q0 3.059.61 4.441.62 1.383 1.969 1.383 1.347 0 1.968-1.395t.621-4.43q0-3.045-.62-4.43-.622-1.381-1.97-1.382t-1.968 1.383q-.61 1.37-.61 4.43m-3.48 0q0-4.325 1.5-6.47 1.512-2.155 4.559-2.155 3.035 0 4.546 2.168 1.524 2.156 1.524 6.48t-1.512 6.457q-1.5 2.133-4.558 2.133-3.048 0-4.559-2.145-1.5-2.145-1.5-6.468m60-18.575h12v2.391h-12zm2.707 21.949v-3.211h6.586v3.21zm63.129-39.527h2.367V15.3h5.836v2.332h-5.836v6h-2.367v-6H727.5V15.3h5.836zM727.5 47.818h14.04v2.332H727.5zm0-5.039h14.04v2.332H727.5z"/><path style="font-size:16px;font-style:normal;font-variant:normal;font-weight:700;font-stretch:normal;text-align:center;line-height:125%;writing-mode:lr-tb;text-anchor:middle;fill:#000;fill-opacity:1;stroke:none;stroke-width:1px;stroke-linecap:butt;stroke-linejoin:miter;stroke-opacity:1;font-family:Swis721 BT" d="M11.07 95.602v-9.454H7.656v-2.054h9.172v2.054h-3.39v9.454zm11.79-1.055a2.85 2.85 0 0 1-1.126 1.016q-.694.343-1.617.343-1.234 0-1.906-.703-.664-.703-.664-2 0-1.203.664-1.836.672-.632 2.21-.867.353-.054.923-.125 1.445-.188 1.445-.836 0-.515-.32-.734-.32-.227-1.07-.227-.688 0-1.055.274-.367.273-.367.78v.126h-2.125v-.156q0-1.305.921-2.047.922-.75 2.547-.75 1.782 0 2.727.617.953.617.953 1.781v4.828q0 .531.11.797a.77.77 0 0 0 .367.39v.384h-2.368a2 2 0 0 1-.18-.485 3 3 0 0 1-.07-.57m-.039-3.125q-.555.258-1.28.414-.72.156-.743.164-.601.172-.844.43-.234.258-.234.71 0 .47.304.75.306.274.82.274.922 0 1.446-.516.531-.523.531-1.421zm4.22-7.328h2.21v4.07a2.8 2.8 0 0 1 1.055-1q.64-.344 1.453-.344 1.539 0 2.515 1.274.977 1.265.977 3.297 0 2.016-.977 3.257-.976 1.243-2.546 1.243-.82 0-1.43-.344-.602-.344-1.094-1.094v1.149H27.04zm5.953 7.203q0-1.171-.492-1.836-.492-.672-1.352-.672-.905 0-1.406.656-.492.65-.492 1.852 0 1.296.469 1.969.476.672 1.383.671.921 0 1.406-.671.484-.68.484-1.97M789.766 44.37h2.804q.993 0 1.446-.36t.453-1.133q0-.805-.446-1.156-.444-.36-1.468-.36h-2.79zm0-4.976h2.704q.874 0 1.281-.297.405-.305.406-.953 0-.633-.398-.914-.39-.29-1.305-.29h-2.687zm-2.266 7.054V34.94h5.422q1.766 0 2.687.75.93.743.93 2.165 0 .875-.344 1.46-.344.586-1.03.907.89.36 1.327 1.039.445.672.446 1.68 0 1.68-1.094 2.593-1.094.915-3.102.914zm15.953-1.054a2.85 2.85 0 0 1-1.125 1.015q-.694.344-1.617.344-1.234 0-1.906-.703-.664-.704-.664-2 0-1.203.664-1.836.672-.633 2.21-.867.352-.055.923-.125 1.445-.188 1.445-.836 0-.516-.32-.735-.32-.225-1.07-.226-.688 0-1.056.273-.366.274-.367.782v.125h-2.125v-.157q0-1.305.922-2.047.923-.75 2.547-.75 1.781 0 2.727.618.953.617.953 1.78v4.829q0 .531.11.797a.77.77 0 0 0 .366.39v.383h-2.367a2 2 0 0 1-.18-.484 3 3 0 0 1-.07-.57m-.039-3.125q-.555.257-1.281.414-.72.156-.742.164-.602.172-.844.43-.234.257-.235.71 0 .47.305.75.305.274.82.274.923 0 1.446-.516.531-.523.531-1.422zm9.305.976h2.242q-.14 1.617-1.18 2.555-1.038.937-2.672.937-1.851 0-2.906-1.203-1.047-1.21-1.047-3.344 0-2.124 1.07-3.328 1.079-1.21 2.962-1.21 1.648 0 2.64.874 1.001.876 1.117 2.438h-2.258q-.092-.68-.476-1.04-.382-.359-1.008-.359-.843 0-1.265.665-.415.663-.415 1.992 0 1.226.43 1.89.438.657 1.25.657.633 0 1.016-.383t.5-1.14m3.726 3.202V34.94h2.211v6.04l2.703-3.024h2.735l-2.961 3.149 3.14 5.343h-2.726l-2.031-3.617-.86.93v2.687zm8.35-2.765h2.266q.032.648.47.968.435.313 1.312.313.664 0 1.023-.219.367-.226.367-.633 0-.578-1.359-.867-.555-.117-.883-.203-1.656-.422-2.304-1-.641-.578-.641-1.562 0-1.305.937-2.063.945-.765 2.555-.766 1.703 0 2.672.758.976.758 1.039 2.133h-2.21q-.025-.54-.415-.836-.383-.297-1.07-.297-.65 0-.97.196a.65.65 0 0 0-.312.585q0 .508 1.696.899.39.086.617.14 1.695.399 2.312.961.625.563.625 1.586 0 1.445-1.023 2.204-1.016.757-2.96.757-1.76 0-2.75-.789-.993-.789-.993-2.172zm15.226-1.43q0-1.281-.484-1.953-.485-.68-1.406-.68-.906 0-1.383.672-.469.672-.469 1.961 0 1.203.492 1.86.501.656 1.407.656.86 0 1.351-.672.492-.672.492-1.844m-5.953 7.602v-11.9h2.164v1.149q.492-.75 1.094-1.094.61-.344 1.43-.344 1.57 0 2.547 1.242.976 1.234.976 3.25 0 2.04-.976 3.313-.977 1.265-2.516 1.265a3 3 0 0 1-1.453-.343 2.9 2.9 0 0 1-1.055-1v4.46zm14.632-4.46a2.85 2.85 0 0 1-1.125 1.015q-.694.344-1.617.344-1.234 0-1.906-.703-.664-.704-.664-2 0-1.203.664-1.836.672-.633 2.21-.867.352-.055.923-.125 1.445-.188 1.445-.836 0-.516-.32-.735-.32-.225-1.07-.226-.688 0-1.056.273-.366.274-.367.782v.125h-2.125v-.157q0-1.305.922-2.047.923-.75 2.547-.75 1.781 0 2.727.618.953.617.953 1.78v4.829q0 .531.11.797a.77.77 0 0 0 .366.39v.383h-2.367a2 2 0 0 1-.18-.484 3 3 0 0 1-.07-.57m-.039-3.125q-.555.257-1.281.414-.72.156-.742.164-.602.172-.844.43-.234.257-.235.71 0 .47.305.75.305.274.82.274.923 0 1.446-.516.531-.523.531-1.422zm9.305.976h2.242q-.14 1.617-1.18 2.555-1.038.937-2.672.937-1.851 0-2.906-1.203-1.047-1.21-1.047-3.344 0-2.124 1.07-3.328 1.079-1.21 2.962-1.21 1.648 0 2.64.874 1.001.876 1.117 2.438h-2.258q-.092-.68-.476-1.04-.382-.359-1.008-.359-.843 0-1.265.665-.415.663-.415 1.992 0 1.226.43 1.89.438.657 1.25.657.633 0 1.016-.383t.5-1.14m8.914.624h2.265q-.343 1.344-1.39 2.11-1.04.757-2.54.757-1.842 0-2.921-1.234-1.078-1.242-1.078-3.36 0-2.085 1.062-3.288 1.063-1.204 2.907-1.204 1.953 0 3.015 1.188 1.063 1.18 1.063 3.367 0 .243-.008.367 0 .117-.016.227h-5.672q.048 1 .485 1.508.445.507 1.273.507.585 0 .961-.226.375-.234.594-.719m-3.313-2.562h3.344q-.03-.86-.46-1.305-.422-.453-1.22-.453-.741 0-1.172.453-.42.453-.492 1.305"/><path style="fill:none;fill-opacity:.75;fill-rule:evenodd;stroke:#000;stroke-width:3;stroke-linecap:butt;stroke-linejoin:miter;stroke-miterlimit:4;stroke-opacity:1" d="M840 17.646h-42.974"/><path style="fill:#000;fill-opacity:1;fill-rule:evenodd;stroke:none;stroke-width:1px;stroke-linecap:butt;stroke-linejoin:miter;stroke-opacity:1" d="M802.5 25.146v-15l-15 7.5z"/><path style="fill:none;fill-opacity:.75;fill-rule:evenodd;stroke:#000;stroke-width:3.00000024;stroke-linecap:butt;stroke-linejoin:miter;stroke-miterlimit:4;stroke-dasharray:none;stroke-opacity:1" d="M82.5 75H54.02" transform="translate(0 7.5)"/><path style="fill:#000;fill-opacity:1;fill-rule:evenodd;stroke:none;stroke-width:1px;stroke-linecap:butt;stroke-linejoin:miter;stroke-opacity:1" d="M60 82.5v-15L45 75z" transform="translate(0 7.5)"/><path d="M45 67.5v15" style="fill:none;fill-opacity:.75;fill-rule:evenodd;stroke:#000;stroke-width:3;stroke-linecap:butt;stroke-linejoin:miter;stroke-miterlimit:4;stroke-dasharray:none;stroke-opacity:1" transform="translate(0 7.5)"/><path d="M82.5 75H54.02" style="fill:none;fill-opacity:.75;fill-rule:evenodd;stroke:#000;stroke-width:3.00000024;stroke-linecap:butt;stroke-linejoin:miter;stroke-miterlimit:4;stroke-dasharray:none;stroke-opacity:1" transform="rotate(180 63.75 86.25)"/><path d="M60 82.5v-15L45 75z" style="fill:#000;fill-opacity:1;fill-rule:evenodd;stroke:none;stroke-width:1px;stroke-linecap:butt;stroke-linejoin:miter;stroke-opacity:1" transform="rotate(180 63.75 86.25)"/><path style="fill:none;fill-opacity:.75;fill-rule:evenodd;stroke:#000;stroke-width:3;stroke-linecap:butt;stroke-linejoin:miter;stroke-miterlimit:4;stroke-dasharray:none;stroke-opacity:1" d="M45 67.5v15" transform="rotate(180 63.75 86.25)"/><path style="font-size:24px;font-style:normal;font-variant:normal;font-weight:700;font-stretch:normal;text-align:center;line-height:125%;writing-mode:lr-tb;text-anchor:middle;fill:#000;fill-opacity:1;stroke:none;stroke-width:1px;stroke-linecap:butt;stroke-linejoin:miter;stroke-opacity:1;font-family:Swis721 BT" d="m107.063 80.56-1.829-1.78 1.946-2.016 1.875 1.828a6.3 6.3 0 0 0 .574-1.606q.2-.902.2-1.968 0-2.849-1.278-4.418-1.278-1.582-3.574-1.582-2.274 0-3.54 1.57-1.265 1.57-1.265 4.43 0 2.847 1.266 4.43 1.265 1.57 3.539 1.57.585 0 1.101-.118.528-.117.984-.34m2.497 2.356q-.88.586-2.051.89a10 10 0 0 1-2.531.305q-3.868 0-6.153-2.46-2.273-2.462-2.273-6.633 0-4.184 2.273-6.633 2.285-2.46 6.153-2.461t6.152 2.46q2.297 2.461 2.297 6.634 0 1.828-.469 3.351a7.9 7.9 0 0 1-1.383 2.649l1.875 1.793-1.922 2.015zm49.382.714-4.945-17.26h3.68l2.953 12.175 2.496-12.176h3.785l2.496 12.176 2.953-12.176h3.645l-4.934 17.262h-3.386l-2.672-13.219-2.684 13.219zm59.584 0V66.37h12.528v3h-9.024v3.679h8.25v2.953h-8.25v4.441h9.446v3.188zm62.913-9.714h4.171q1.36 0 1.993-.55.644-.552.644-1.735 0-1.125-.621-1.7-.62-.585-1.852-.585h-4.336zm-3.55 9.715V66.369h8.367q2.824 0 4.183 1.207 1.36 1.207 1.36 3.692 0 1.581-.668 2.636-.656 1.055-1.899 1.442 1.126.398 1.594 1.218.48.82.551 2.555l.07 2.04v.07q.036 1.546.668 1.875v.527h-3.89a3.4 3.4 0 0 1-.293-.89 9 9 0 0 1-.118-1.278l-.046-1.817q-.06-1.605-.61-2.167-.539-.563-1.957-.563h-3.762v6.715zm65.354-.001V69.452h-5.12V66.37h13.757v3.082h-5.086v14.18zm63.826 0h-3.55v-6.433l-6.27-10.828h4.348l3.691 7.442 3.41-7.442h4.055l-5.684 10.828zm51.018-17.525h3.586v10.829q0 2.004.797 2.93.797.913 2.531.913 1.757 0 2.555-.914.808-.915.808-2.93V66.106h3.551V77.32q0 3.177-1.781 4.875-1.77 1.7-5.11 1.7-3.362 0-5.156-1.688-1.78-1.7-1.781-4.887zm65.139 17.525V66.37h3.55v17.26zM580.184 75q0 2.847 1.265 4.43 1.266 1.57 3.54 1.57 2.296 0 3.573-1.57 1.278-1.583 1.278-4.43t-1.278-4.418Q587.287 69 584.989 69q-2.273 0-3.539 1.57T580.184 75m-3.621 0q0-4.184 2.273-6.633 2.285-2.46 6.152-2.46t6.153 2.46q2.295 2.46 2.297 6.633 0 4.172-2.297 6.633-2.286 2.46-6.153 2.46t-6.152-2.46q-2.274-2.46-2.274-6.633m65.415-.639h3.433q1.395 0 2.028-.586.632-.597.632-1.91 0-1.23-.62-1.863-.622-.633-1.852-.633h-3.621zm-.024 3.13v6.14h-3.55V66.369h7.675q2.72 0 4.113 1.418 1.407 1.407 1.407 4.137 0 2.671-1.371 4.125-1.373 1.44-3.914 1.441zm67.295-13.571v2.45q-.105 0-.293-.013a5 5 0 0 0-.258-.011q-1.183 0-1.605.457-.41.446-.41 1.898v2.813q0 1.734-.528 2.46-.527.728-1.898 1.044 1.371.316 1.898 1.03.528.716.528 2.45v2.824q0 1.442.41 1.887t1.605.445q.07 0 .258-.011.188-.012.293-.012v2.45q-.165 0-.457.01-.293.013-.434.013-1.17 0-1.957-.141-.784-.14-1.336-.434a2.23 2.23 0 0 1-.949-1.078q-.27-.667-.27-2.332v-2.953q0-1.605-.597-2.273-.597-.68-2.016-.68-.07 0-.234.012-.164.01-.246.011v-2.449q.082 0 .246.012.165.012.234.012 1.407 0 2.004-.68.61-.68.61-2.297v-2.93q0-1.676.27-2.355.28-.68.948-1.078.552-.293 1.336-.434.786-.14 1.957-.14.141 0 .434.011.293.012.457.012m-6.152 30.047h5.918v2.496h-2.754v17.379h2.754v2.496h-5.918zm57.656-30.059h.797q1.289 0 2.074.14.785.142 1.313.446.667.375.937 1.078.281.692.281 2.32v2.954q0 1.605.598 2.285.597.668 2.016.668.07 0 .234-.012t.246-.012v2.45h-.434q-1.465 0-2.062.656t-.598 2.273v2.953q0 1.677-.28 2.356-.27.68-.938 1.055-.552.293-1.336.433-.786.14-1.957.14-.141 0-.434-.01a12 12 0 0 0-.457-.013V83.62q.105 0 .293.012.187.012.258.012 1.183 0 1.593-.457.423-.445.422-1.875V78.51q0-1.758.528-2.473.527-.726 1.898-1.031-1.371-.317-1.898-1.043-.528-.727-.528-2.461v-2.836q0-1.43-.422-1.875-.41-.457-1.593-.457-.07 0-.258.012a5 5 0 0 1-.293.011zm6.258 30.047v22.371h-5.93v-2.496h2.766V96.451h-2.766v-2.496zm56.789-31.078h2.414v24h-2.414zm3.305 50.566L821.29 93.51h1.582l5.836 19.933z"/><text y="139.305" x="52.152" style="font-size:16px;font-style:normal;font-variant:normal;font-weight:700;font-stretch:normal;text-align:center;line-height:125%;writing-mode:lr-tb;text-anchor:middle;fill:#000;fill-opacity:1;stroke:none;stroke-width:1px;stroke-linecap:butt;stroke-linejoin:miter;stroke-opacity:1;font-family:Swis721 BT" xml:space="preserve" transform="translate(0 3.75)"><tspan y="139.305" x="52.152">Caps Lock</tspan></text><path d="M26.25 142.5 15 157.5h7.5v7.5H30v-7.5h7.5zm-1.031 4.219h2.031l3.125 8.625H28.5l-.594-1.781h-3.343l-.563 1.78h-1.875zm1.031 1.719-1.219 3.656h2.407z" style="fill:#000;fill-opacity:1;fill-rule:evenodd;stroke:none;stroke-width:1px;stroke-linecap:butt;stroke-linejoin:miter;stroke-opacity:1" transform="translate(0 3.75)"/><path style="font-size:24px;font-style:normal;font-variant:normal;font-weight:700;font-stretch:normal;text-align:center;line-height:125%;writing-mode:lr-tb;text-anchor:middle;fill:#000;fill-opacity:1;stroke:none;stroke-width:1px;stroke-linecap:butt;stroke-linejoin:miter;stroke-opacity:1;font-family:Swis721 BT" d="m119.97 129.826-2.39 7.348h4.793zm-2.063-3.457h4.102l6.222 17.262h-3.726l-1.172-3.55h-6.691l-1.137 3.55h-3.738zm55.073 11.924h3.504q.2 1.417 1.16 2.11.961.679 2.778.679 1.546 0 2.332-.55.785-.551.785-1.63 0-1.57-4.512-2.601l-.105-.024q-.118-.023-.363-.082-2.415-.527-3.446-1.183a3.8 3.8 0 0 1-1.394-1.57q-.48-.997-.48-2.344 0-2.52 1.71-3.856 1.711-1.347 4.946-1.347 3.023 0 4.722 1.43 1.71 1.429 1.805 4.03h-3.41q-.094-1.253-.961-1.91-.868-.656-2.473-.656-1.394 0-2.156.55-.75.54-.75 1.548 0 1.37 2.941 2.05l1.242.293q1.887.48 2.672.75.798.27 1.383.598 1.054.585 1.582 1.559.528.96.528 2.308 0 2.696-1.817 4.184-1.816 1.476-5.121 1.476-3.258 0-5.11-1.511-1.851-1.512-1.992-4.301m63.182 2.221h2.848q2.472 0 3.574-1.29 1.113-1.3 1.113-4.206 0-2.895-1.031-4.254-1.031-1.36-3.223-1.36h-3.28zm-3.481 3.117v-17.262h6.761q3.973 0 5.918 2.145 1.957 2.144 1.957 6.504 0 2.367-.726 4.171-.715 1.805-2.086 2.907a6.5 6.5 0 0 1-2.344 1.183q-1.312.352-3.68.352zm61.296-.001v-17.26h12.046v3h-8.543v3.913h7.489v3h-7.489v7.348zm71.203-2.056q-.961 1.3-2.192 1.91-1.219.61-2.87.61-3.622 0-5.872-2.508-2.238-2.52-2.238-6.61 0-4.125 2.238-6.597t5.965-2.473q3.246 0 5.297 1.559 2.051 1.547 2.437 4.265h-3.62q-.33-1.347-1.348-2.05-1.008-.704-2.637-.703-2.168 0-3.41 1.593-1.23 1.582-1.23 4.383 0 2.813 1.288 4.406 1.29 1.594 3.54 1.594 1.687 0 2.824-.996t1.406-2.73h-3.914v-2.954h7.148v9.34h-2.379zm47.683 2.056v-17.26h3.575v6.433h7.125v-6.434h3.574v17.262h-3.575v-7.652h-7.125v7.652zm61.617-6.673h3.434v2.086q0 .902.54 1.383.538.469 1.546.469 1.101 0 1.535-.575.434-.573.434-2.156V126.13h3.55v12.2q0 1.64-.199 2.413a3.6 3.6 0 0 1-.632 1.348q-.68.868-1.864 1.324t-2.777.457q-1.465 0-2.59-.398t-1.875-1.184a3.8 3.8 0 0 1-.855-1.406q-.247-.786-.247-2.578zm57.844 6.673v-17.26h3.551v7.089l6.738-7.09h4.442l-6.89 6.985 7.51 10.277h-4.335l-5.625-7.899-1.84 1.829v6.07zm61.688 0v-17.26h3.55v14.073h8.426v3.188zm-450.862 60v-3l9.387-11.132h-9.2v-3.129h13.513v3l-9.41 11.145h9.199v3.117zm59.221 0 5.426-8.812-5.426-8.449h4.102l3.527 6.035 3.504-6.035h4.125l-5.426 8.426 5.426 8.836h-4.102L210 197.654l-3.527 5.977zm75.504-5.946q-.199 2.941-2.273 4.675-2.063 1.735-5.391 1.735-3.832 0-5.965-2.39-2.121-2.392-2.121-6.704 0-4.406 2.168-6.75 2.167-2.344 6.234-2.344 3.305 0 5.215 1.617 1.922 1.605 2.11 4.547h-3.504q-.223-1.464-1.196-2.226-.972-.774-2.625-.774-2.344 0-3.562 1.512-1.22 1.511-1.219 4.418 0 2.812 1.207 4.348 1.22 1.535 3.457 1.535 1.617 0 2.649-.82 1.03-.832 1.336-2.38zm50.461 5.946-5.953-17.26h3.937l3.668 12.913 3.739-12.914h3.89l-5.883 17.262zm57.984-3.116h4.207q1.489 0 2.168-.54.68-.538.68-1.699 0-1.206-.668-1.734-.668-.54-2.203-.54h-4.184zm0-7.465h4.055q1.313 0 1.922-.445.61-.458.61-1.43 0-.95-.598-1.371-.586-.435-1.957-.434h-4.032zm-3.398 10.582v-17.262h8.133q2.648 0 4.03 1.125 1.395 1.113 1.395 3.246 0 1.313-.515 2.192-.516.879-1.547 1.359 1.336.54 1.992 1.559.668 1.006.668 2.52 0 2.519-1.64 3.89-1.641 1.37-4.653 1.37zm59.965-.001v-17.26h3.715l7.007 11.859v-11.86h3.504v17.262h-3.668l-7.054-11.86v11.86zm58.441 0v-17.26h5.25l3.434 13.136 3.386-13.137h5.274v17.262h-3.328v-13.922l-3.504 13.922h-3.633l-3.55-13.922v13.922zm156.897-68.976v-3.55h3.55v3.55zm0 8.977v-3.527h3.55v3.527zm.023 21.023v-3.55h3.527v3.55zm0 13.032v-1.372q.984-.28 1.453-.867.47-.585.469-1.523v-.293h-1.945v-3.527h3.55v3.386q0 1.758-.89 2.813-.891 1.066-2.637 1.383m62.537-50.906h2.25v6.55h-2.25zm-3.82 0h2.25v6.55h-2.25zm1.922 30h2.25v6.55h-2.25z"/><path style="font-size:16px;font-style:normal;font-variant:normal;font-weight:700;font-stretch:normal;text-align:center;line-height:125%;writing-mode:lr-tb;text-anchor:middle;fill:#000;fill-opacity:1;stroke:none;stroke-width:1px;stroke-linecap:butt;stroke-linejoin:miter;stroke-opacity:1;font-family:Swis721 BT" d="M772.5 140.61v-11.508h8.352v2h-6.016v2.453h5.5v1.968h-5.5v2.961h6.297v2.125zm10.242 0v-8.492h2.227v1.008a3.06 3.06 0 0 1 1.125-.922 3.3 3.3 0 0 1 1.445-.312q1.406 0 2.102.734.703.726.703 2.195v5.79h-2.274v-5.133q0-.915-.312-1.305-.305-.39-1-.39-.805-.001-1.274.484-.468.476-.468 1.304v5.04zm13.336.062q-.312.008-.75.023a14 14 0 0 1-.547.024q-1.305 0-1.789-.485-.477-.492-.476-1.93v-4.593h-1.125v-1.594h1.125v-2.32h2.25v2.32h1.312v1.594h-1.312v4.703q0 .336.148.445.148.102.61.102h.554zm6.555-2.64h2.265q-.343 1.344-1.39 2.11-1.04.757-2.54.757-1.842 0-2.921-1.234-1.078-1.242-1.078-3.36 0-2.085 1.062-3.288t2.907-1.203q1.953 0 3.015 1.187 1.063 1.18 1.063 3.367 0 .243-.008.367 0 .117-.016.227h-5.672q.048 1 .485 1.508.445.507 1.273.508.585 0 .961-.227.375-.234.594-.719m-3.313-2.562h3.344q-.03-.86-.46-1.305-.422-.453-1.22-.453-.741 0-1.172.453-.42.453-.492 1.305m7.203 5.14v-8.492h2.11v1.453q.445-.875 1.039-1.28.594-.415 1.414-.415.132 0 .203.008.078 0 .125.008l.008 2.304h-.758q-.93 0-1.398.485-.47.484-.47 1.437v4.492z"/><path style="fill:#000;fill-opacity:1;fill-rule:evenodd;stroke:none;stroke-width:1px;stroke-linecap:butt;stroke-linejoin:miter;stroke-opacity:1" d="M787.5 172.5v-15l-15 7.5z"/><path style="fill:none;fill-opacity:.75;fill-rule:evenodd;stroke:#000;stroke-width:3;stroke-linecap:butt;stroke-linejoin:miter;stroke-miterlimit:4;stroke-opacity:1" d="M810 150v15h-30"/><text xml:space="preserve" style="font-size:16px;font-style:normal;font-variant:normal;font-weight:700;font-stretch:normal;text-align:center;line-height:125%;writing-mode:lr-tb;text-anchor:middle;fill:#000;fill-opacity:1;stroke:none;stroke-width:1px;stroke-linecap:butt;stroke-linejoin:miter;stroke-opacity:1;font-family:Swis721 BT" x="31.813" y="201.195"><tspan x="31.813" y="201.195">Shift</tspan></text><path style="fill:none;fill-opacity:1;fill-rule:evenodd;stroke:#000;stroke-width:2;stroke-linecap:butt;stroke-linejoin:miter;stroke-miterlimit:4;stroke-dasharray:none;stroke-opacity:1" d="m27.25 207.125-11.25 15h7.5v7.5H31v-7.5h7.5z"/><text y="201.195" x="31.813" style="font-size:16px;font-style:normal;font-variant:normal;font-weight:700;font-stretch:normal;text-align:center;line-height:125%;writing-mode:lr-tb;text-anchor:middle;fill:#000;fill-opacity:1;stroke:none;stroke-width:1px;stroke-linecap:butt;stroke-linejoin:miter;stroke-opacity:1;font-family:Swis721 BT" xml:space="preserve" transform="translate(727.5)"><tspan y="201.195" x="31.813">Shift</tspan></text><path d="m27.25 207.125-11.25 15h7.5v7.5H31v-7.5h7.5z" style="fill:none;fill-opacity:1;fill-rule:evenodd;stroke:#000;stroke-width:2;stroke-linecap:butt;stroke-linejoin:miter;stroke-miterlimit:4;stroke-dasharray:none;stroke-opacity:1" transform="translate(727.5)"/><path style="font-size:24px;font-style:normal;font-variant:normal;font-weight:700;font-stretch:normal;text-align:center;line-height:125%;writing-mode:lr-tb;text-anchor:middle;fill:#000;fill-opacity:1;stroke:none;stroke-width:1px;stroke-linecap:butt;stroke-linejoin:miter;stroke-opacity:1;font-family:Swis721 BT" d="M576.902 189.639v2.566l-10.465 4.277 10.465 4.266v2.566l-13.804-5.683v-2.332zm-8.683 48.047v-1.372q.984-.28 1.453-.867.469-.585.469-1.523v-.293h-1.922v-3.527h3.55v3.386q0 1.746-.902 2.813-.89 1.066-2.648 1.383m54.879-48.047 13.804 5.66v2.332l-13.804 5.683v-2.566l10.488-4.266-10.488-4.277zm5.12 43.992v-3.527h3.528v3.527zm60.229-35.016q0-.129-.011-.34a7 7 0 0 1-.012-.328q0-1.031.222-1.71.223-.692.715-1.29.375-.445 1.114-1.02.75-.574.972-.831.47-.528.645-.95t.176-.925q0-1.113-.622-1.735-.621-.62-1.734-.62t-1.758.75q-.633.737-.691 2.085h-3.305v-.363q0-2.473 1.559-3.938 1.57-1.476 4.219-1.476 2.707 0 4.3 1.394 1.606 1.383 1.606 3.715 0 .821-.188 1.477-.175.645-.55 1.183-.48.68-1.489 1.477-.996.785-1.207.973-.446.433-.644.914-.188.48-.188 1.148 0 .06.012.2t.012.21zm-.164 5.016v-3.434h3.457v3.434zm-1.969 32.226 5.813-19.933h1.605l-5.836 19.933z"/><path style="font-size:16px;font-style:normal;font-variant:normal;font-weight:700;font-stretch:normal;text-align:center;line-height:125%;writing-mode:lr-tb;text-anchor:middle;fill:#000;fill-opacity:1;stroke:none;stroke-width:1px;stroke-linecap:butt;stroke-linejoin:miter;stroke-opacity:1;font-family:Swis721 BT" d="M18 271.79q-.133 1.96-1.516 3.116-1.374 1.156-3.593 1.156-2.556 0-3.977-1.593Q7.5 272.875 7.5 270q0-2.937 1.445-4.5 1.446-1.562 4.157-1.562 2.202 0 3.476 1.078 1.281 1.07 1.406 3.03h-2.336q-.148-.976-.796-1.483-.65-.516-1.75-.516-1.563 0-2.375 1.008T9.914 270q0 1.875.805 2.898.812 1.024 2.304 1.024 1.08 0 1.766-.547.687-.555.89-1.586zm5.469 4.016q-.313.008-.75.023-.43.024-.547.024-1.305 0-1.79-.485-.476-.492-.476-1.93v-4.593h-1.125v-1.594h1.125v-2.32h2.25v2.32h1.313v1.594h-1.313v4.703q0 .336.149.445.148.102.61.102h.554zm1.32-.062v-8.492h2.11v1.453q.445-.875 1.038-1.281.594-.414 1.415-.414.132 0 .203.008.078 0 .125.007l.008 2.305h-.758q-.93 0-1.399.485-.469.484-.468 1.437v4.492zm6.234 0v-11.508h2.274v11.508zm131.946-9.248-1.594 4.899h3.195zm-1.375-2.305h2.734l4.149 11.508h-2.485l-.781-2.367h-4.461l-.758 2.367H157.5zm7.945 11.508v-11.508h2.274V275.7zm8.102.063q-.314.008-.75.023-.431.024-.547.024-1.305 0-1.79-.485-.476-.492-.476-1.93v-4.593h-1.125v-1.594h1.125v-2.32h2.25v2.32h1.313v1.594h-1.313v4.703q0 .336.149.445.149.102.609.102h.555zM828 271.79q-.133 1.96-1.516 3.116-1.374 1.156-3.593 1.156-2.555 0-3.977-1.593-1.414-1.594-1.414-4.469 0-2.937 1.445-4.5 1.446-1.562 4.157-1.562 2.202 0 3.476 1.078 1.281 1.07 1.406 3.03h-2.336q-.148-.976-.796-1.483-.65-.516-1.75-.516-1.563 0-2.375 1.008t-.813 2.945q0 1.875.805 2.898.812 1.024 2.304 1.024 1.08 0 1.766-.547.687-.555.89-1.586zm5.469 4.016q-.313.008-.75.023-.43.024-.547.024-1.304 0-1.79-.485-.476-.492-.476-1.93v-4.593h-1.125v-1.594h1.125v-2.32h2.25v2.32h1.313v1.594h-1.313v4.703q0 .336.149.445.148.102.61.102h.554zm1.32-.062v-8.492h2.11v1.453q.445-.875 1.038-1.281.594-.414 1.415-.414.132 0 .203.008.078 0 .125.007l.008 2.305h-.758q-.93 0-1.399.485-.468.484-.468 1.437v4.492zm6.234 0v-11.508h2.274v11.508zM108.945 264.02l-3.297-11.508h2.454l1.968 8.117 1.664-8.117h2.524l1.664 8.117 1.969-8.117h2.43l-3.29 11.508h-2.258l-1.78-8.813-1.79 8.813zm12.555-9.438v-2.07h2.273v2.07zm0 9.438v-8.493h2.273v8.493zm4.297 0v-8.493h2.226v1.008a3.06 3.06 0 0 1 1.125-.922 3.3 3.3 0 0 1 1.446-.312q1.406 0 2.101.734.704.727.703 2.195v5.79h-2.273v-5.133q0-.915-.312-1.305-.306-.39-1-.39-.805-.001-1.274.484-.469.476-.469 1.304v5.04zm-19.149 20v-11.508h2.368v4.726l4.492-4.726h2.96l-4.593 4.656 5.008 6.852h-2.89l-3.75-5.266-1.227 1.219v4.047zm16.29-2.579h2.265q-.345 1.345-1.39 2.11-1.04.758-2.54.758-1.844 0-2.921-1.235-1.08-1.242-1.079-3.36 0-2.085 1.063-3.288t2.906-1.203q1.953 0 3.016 1.187 1.062 1.18 1.062 3.367 0 .242-.007.368 0 .117-.016.226h-5.672q.047 1 .484 1.508.446.508 1.274.508.585 0 .96-.227.376-.234.594-.719m-3.312-2.562h3.344q-.032-.86-.461-1.305-.422-.453-1.219-.453-.742 0-1.172.453-.421.453-.492 1.305m7.54 8.547v-1.836q.108.015.226.023t.304.008q.672 0 1.008-.32.336-.313.336-.946a.6.6 0 0 0-.016-.117 1 1 0 0 0-.03-.117l-3.063-8.594h2.5l1.789 6.125 1.742-6.125h2.39l-3.492 10.016q-.39 1.125-.976 1.531-.586.414-1.758.414-.21 0-.453-.015a10 10 0 0 1-.508-.047m581.781-23.406-3.297-11.508h2.454l1.968 8.117 1.664-8.117h2.524l1.664 8.117 1.969-8.117h2.43l-3.29 11.508h-2.258l-1.78-8.813-1.79 8.813zm12.555-9.438v-2.07h2.273v2.07zm0 9.438v-8.493h2.273v8.493zm4.297 0v-8.493h2.226v1.008a3.06 3.06 0 0 1 1.125-.922 3.3 3.3 0 0 1 1.446-.312q1.406 0 2.101.734.703.727.703 2.195v5.79h-2.273v-5.133q0-.915-.312-1.305-.306-.39-1-.39-.805-.001-1.274.484-.469.476-.469 1.304v5.04zm-19.149 20v-11.508h2.368v4.726l4.492-4.726h2.96l-4.593 4.656 5.008 6.852h-2.89l-3.75-5.266-1.227 1.219v4.047zm16.29-2.579h2.265q-.345 1.345-1.39 2.11-1.04.758-2.54.758-1.844 0-2.921-1.235-1.08-1.242-1.079-3.36 0-2.085 1.063-3.288t2.906-1.203q1.953 0 3.016 1.187 1.062 1.18 1.062 3.367 0 .242-.008.368 0 .117-.015.226h-5.672q.047 1 .484 1.508.446.508 1.274.508.585 0 .96-.227.375-.234.595-.719m-3.313-2.562h3.344q-.032-.86-.461-1.305-.422-.453-1.219-.453-.742 0-1.172.453-.422.453-.492 1.305m7.54 8.547v-1.836q.108.015.226.023.117.008.304.008.672 0 1.008-.32.336-.313.336-.946a.6.6 0 0 0-.016-.117 1 1 0 0 0-.03-.117l-3.063-8.594h2.5l1.789 6.125 1.742-6.125h2.39l-3.492 10.016q-.39 1.125-.976 1.531-.586.414-1.758.414-.21 0-.453-.015a10 10 0 0 1-.508-.047m32.82-11.816v-11.508h3.5l2.29 8.757 2.257-8.757h3.516v11.507h-2.219v-9.28l-2.336 9.28h-2.422l-2.367-9.28v9.28zm19.008-2.578h2.266q-.345 1.345-1.39 2.11-1.04.757-2.54.757-1.843 0-2.922-1.234-1.077-1.242-1.078-3.36 0-2.085 1.063-3.288t2.906-1.204q1.953 0 3.015 1.188 1.063 1.18 1.063 3.367 0 .243-.008.367 0 .118-.015.227h-5.672q.046 1 .484 1.508.445.507 1.274.508.585 0 .96-.227.375-.234.594-.719m-3.312-2.562h3.343q-.03-.86-.46-1.305-.422-.453-1.22-.453-.741 0-1.171.453-.422.453-.492 1.305m7.203 5.14v-8.492h2.226v1.008a3.06 3.06 0 0 1 1.125-.922 3.3 3.3 0 0 1 1.446-.312q1.406 0 2.101.734.703.726.703 2.195v5.79h-2.273v-5.133q0-.915-.313-1.305-.304-.39-1-.39-.804-.001-1.273.484-.469.476-.469 1.304v5.04zm17.133-8.493v8.492h-2.227v-1.007q-.484.616-1.133.93a3.3 3.3 0 0 1-1.445.304q-1.398 0-2.102-.734-.695-.735-.695-2.196v-5.789h2.274v5.133q0 .906.304 1.297.305.383 1.008.383.796 0 1.266-.477.476-.484.476-1.312v-5.024z"/><path style="font-size:16px;font-style:normal;font-variant:normal;font-weight:700;font-stretch:normal;text-align:center;line-height:125%;writing-mode:lr-tb;text-anchor:middle;fill:#000;fill-opacity:1;stroke:none;font-family:Swis721 BT" d="m612.969 266.496-1.594 4.899h3.195zm-1.375-2.305h2.734l4.149 11.508h-2.485l-.781-2.367h-4.461l-.758 2.367H607.5zm7.945 11.508v-11.508h2.273V275.7zm8.102.063q-.313.008-.75.023a14 14 0 0 1-.547.024q-1.304 0-1.79-.485-.476-.492-.476-1.93v-4.593h-1.125v-1.594h1.125v-2.32h2.25v2.32h1.313v1.594h-1.313v4.703q0 .336.149.445.149.102.609.102h.555z"/></svg>
