<svg version="1.0" xmlns="http://www.w3.org/2000/svg" viewBox="0 0 591 897"><g transform="translate(0,897) scale(0.1,-0.1)" stroke="none" fill="#000"><path d="M0 7990 l0 -980 518 2 517 3 5 505 5 505 1900 0 1900 0 0 -3130 0 -3130 -180 0 -179 0 -84 140 c-46 77 -86 147 -90 155 -3 8 -17 31 -30 50 -13 19 -28 44 -33 55 -5 11 -18 34 -29 50 -11 17 -24 39 -30 50 -6 11 -19 34 -30 50 -11 17 -24 39 -30 50 -6 11 -19 34 -30 50 -11 17 -24 39 -30 50 -6 11 -19 34 -30 50 -11 17 -24 39 -30 50 -11 21 -18 33 -117 198 l-64 107 -535 0 c-342 0 -534 -4 -534 -10 0 -5 17 -36 37 -67 45 -69 59 -91 73 -118 6 -11 18 -32 28 -47 9 -15 51 -82 92 -148 41 -67 83 -134 92 -148 10 -15 22 -36 28 -47 6 -11 19 -33 30 -50 10 -16 25 -40 32 -52 14 -25 153 -248 180 -291 10 -15 22 -36 28 -47 6 -11 19 -33 30 -50 11 -16 24 -39 30 -50 6 -11 39 -65 75 -120 36 -55 70 -109 75 -120 6 -11 19 -33 30 -50 11 -16 24 -39 30 -50 6 -11 18 -32 28 -47 9 -15 51 -81 92 -148 41 -67 83 -133 92 -148 10 -15 22 -36 28 -47 6 -11 19 -33 30 -50 10 -16 25 -40 32 -52 16 -27 156 -254 180 -291 10 -15 22 -36 28 -47 6 -11 18 -32 28 -47 9 -14 51 -81 92 -148 41 -66 83 -133 92 -148 10 -15 22 -36 28 -47 6 -11 18 -32 28 -47 9 -15 33 -52 52 -82 l34 -56 508 0 c279 0 508 2 508 5 0 2 -31 55 -68 117 -38 62 -71 120 -75 128 -4 8 -16 29 -27 45 -11 17 -24 39 -30 50 -6 11 -19 34 -30 50 -11 17 -24 39 -30 50 -6 11 -19 34 -30 50 -11 17 -24 39 -30 50 -6 11 -19 34 -30 50 -11 17 -24 39 -30 50 -6 11 -20 36 -31 55 -57 95 -68 117 -62 123 3 4 197 7 430 7 l423 0 0 4070 0 4070 -2955 0 -2955 0 0 -980z"/><path d="M0 3725 l0 -2895 1759 0 c1100 0 1762 4 1766 9 3 6 -14 39 -38 73 -24 35 -46 70 -50 78 -4 8 -15 27 -25 42 -9 15 -37 59 -62 99 -25 39 -53 83 -62 98 -10 14 -22 35 -28 46 -5 11 -32 54 -60 95 -27 41 -54 84 -60 95 -6 11 -18 32 -28 47 -18 28 -100 158 -117 187 -5 9 -17 26 -26 39 l-16 22 -954 2 -954 3 -5 2425 -5 2425 -517 3 -518 2 0 -2895z"/></g></svg>
